<?xml version="1.0"?><svg width="313.622" height="471.664" xmlns="http://www.w3.org/2000/svg">
 <title>hs train black</title>
 <metadata id="metadata3">AIGA_Symbol_SignsEPS converted from  http://aiga.org symbol map symOpen Clip Art LibraryJean-Victor </metadata>

 <g>
  <title>Layer 1</title>
  <rect id="svg_4" height="579" width="579" y="-37.664001" x="-132.189026" fill="#000000"/>
  <path d="m159.093994,39.375l-74.093994,0.0625c-34.507,0 -38.9062,28.714203 -38.9062,58.906303l-21,212.844185c0,29.25 22.894199,53.26001 45.9062,56.968018l-69,103.5l39.8125,0l49.375,-72.343018l19.5625,-32l54.063004,0l39.061996,0l22.563004,32l49.374985,72.343018l39.812012,0l-69,-103.5c23.011993,-3.708008 45.906006,-27.718018 45.906006,-56.968018l-22,-213.844185c0,-30.192101 -3.399017,-57.906303 -37.906006,-57.906303l-73.531006,-0.0625zm-29.343994,12.4063l29,0l0.063004,0l0.061996,0l29,0c5.25,0 9.813004,4.4062 9.813004,9.6562l0,17c0,5.25 -4.313004,9.75 -9.813004,9.75l-29,0l-0.061996,0l-0.063004,0l-29,0c-5.5,0 -9.811996,-4.5 -9.811996,-9.75l0,-17c0,-5.25 4.561996,-9.6562 9.811996,-9.6562zm-42.75,47.937504l71.75,0l0.125,0l71.75,0c19.5,0 25.843994,14.9692 25.843994,30.9692l4,37.5c0.152008,18.5 -13.343994,29.811996 -29.843994,29.811996l-71.75,0l-0.061996,0l-0.063004,0l-71.75,0c-16.5,0 -29.9958,-11.311996 -29.8437,-29.811996l5,-40.5c0,-16 5.3437,-27.9692 24.8437,-27.9692zm-3.25,197.719185c14.504997,0 26.25,-1.255981 26.25,13.25c0,14.503021 -11.745003,14.25 -26.25,14.25c-14.504997,0 -26.25,0.253021 -26.25,-14.25c0,-14.505981 11.745003,-13.25 26.25,-13.25zm148.5,0c14.505005,0 27.281006,-1.255981 27.281006,13.25c0,14.503021 -11.776001,15.25 -26.281006,15.25c-14.505005,0 -26.25,-0.746979 -26.25,-15.25c0,-14.505981 10.744995,-13.25 25.25,-13.25z" id="path2229" fill="#ffffff"/>
  <rect fill="#ffffff" stroke-width="null" stroke-dasharray="null" stroke-linejoin="round" stroke-linecap="round" x="70.377991" y="404.335999" width="177" height="8" id="svg_9"/>
  <rect fill="#ffffff" stroke-width="null" stroke-dasharray="null" stroke-linejoin="round" stroke-linecap="round" x="56.377991" y="428.335999" width="205" height="7" id="svg_10"/>
  <rect fill="#ffffff" stroke-width="null" stroke-dasharray="null" stroke-linejoin="round" stroke-linecap="round" x="46.377991" y="452.335999" width="220" height="7" id="svg_11"/>
  <rect id="svg_2" fill="#ffffff" stroke-width="null" stroke-dasharray="null" stroke-linejoin="round" stroke-linecap="round" x="72.877075" y="378.33606" width="177" height="8"/>
 </g>
</svg>